<?xml version="1.0" standalone="no"?>
<!DOCTYPE svg PUBLIC "-//W3C//DTD SVG 20010904//EN"
 "http://www.w3.org/TR/2001/REC-SVG-20010904/DTD/svg10.dtd">
<svg version="1.0" xmlns="http://www.w3.org/2000/svg"
 width="35.000000pt" height="32.000000pt" viewBox="0 0 35.000000 32.000000"
 preserveAspectRatio="xMidYMid meet">
<metadata>
Created by potrace 1.10, written by Peter Selinger 2001-2011
</metadata>
<g transform="translate(0.000000,32.000000) scale(0.100000,-0.100000)"
fill="#000000" stroke="none">
<path d="M80 291 c0 -32 -11 -50 -26 -44 -10 4 -14 -3 -14 -22 0 -15 4 -24 10
-20 6 4 8 11 5 16 -4 5 5 4 19 -3 26 -11 35 -28 16 -28 -5 0 -10 5 -10 10 0 6
-5 10 -11 10 -5 0 -7 -6 -3 -12 4 -7 4 -10 -1 -6 -9 9 -65 -19 -65 -32 0 -13
13 -13 27 1 9 9 14 0 22 -32 6 -24 15 -58 20 -76 6 -20 5 -35 -2 -42 -6 -6 -7
-11 -3 -11 5 0 15 8 23 17 11 13 13 14 10 3 -3 -11 3 -15 24 -15 17 0 29 5 29
13 0 11 -12 15 -52 15 -17 0 -22 13 -33 88 -6 41 -5 47 13 51 18 5 19 3 10
-17 -12 -26 -3 -91 13 -101 5 -3 16 0 24 6 22 18 43 -3 39 -38 -2 -16 -1 -19
2 -7 4 11 10 25 15 31 6 8 -1 16 -21 24 -23 10 -30 18 -29 39 1 17 3 20 6 8 6
-25 32 -21 42 6 12 30 40 30 52 1 11 -31 36 -21 44 16 11 48 33 45 41 -5 8
-56 1 -75 -28 -75 -20 1 -21 2 -5 11 9 5 17 20 17 32 0 21 -1 21 -13 -3 -7
-14 -22 -25 -32 -26 -48 -3 -55 -5 -55 -19 0 -8 -4 -15 -10 -15 -5 0 -10 -7
-10 -16 0 -10 6 -14 15 -11 8 4 17 2 20 -3 4 -6 12 -10 18 -10 7 0 4 7 -6 14
-15 12 -17 18 -7 36 7 13 17 19 27 16 8 -3 17 -6 19 -6 2 0 4 -7 4 -15 0 -8
-7 -15 -15 -15 -9 0 -12 -6 -9 -15 4 -8 13 -15 21 -15 9 0 13 6 9 15 -3 8 4
21 16 30 21 14 23 13 34 -15 7 -17 15 -30 17 -30 2 0 3 29 3 65 0 35 -4 59 -8
52 -5 -8 -8 -6 -8 6 0 9 5 17 10 17 18 0 10 29 -15 54 -19 19 -25 35 -25 71
l0 45 -110 0 c-102 0 -110 -1 -110 -19z m207 -48 c-3 -32 -2 -52 2 -45 6 10
10 10 19 -1 10 -11 -6 -14 -93 -16 -100 -2 -105 -1 -105 18 0 12 -4 21 -10 21
-5 0 -10 18 -10 40 l0 40 101 0 102 0 -6 -57z m-97 -86 c0 -6 -3 -8 -6 -4 -3
3 -17 2 -29 -3 -16 -6 -25 -5 -29 3 -2 7 -5 -9 -5 -35 -1 -27 -5 -48 -10 -48
-13 0 -22 46 -15 74 5 21 11 24 50 23 24 0 44 -5 44 -10z"/>
<path d="M160 252 c-5 -2 -10 -13 -10 -24 0 -11 5 -18 13 -15 6 2 11 9 10 14
-1 6 11 9 27 7 19 -2 30 1 30 9 0 11 -46 17 -70 9z"/>
<path d="M20 128 c-17 -27 -20 -50 -6 -60 6 -4 5 -13 -3 -22 -11 -13 -11 -16
1 -16 9 0 14 11 14 30 0 17 -4 30 -9 30 -6 0 -2 9 7 19 10 11 16 25 14 31 -1
5 -10 0 -18 -12z"/>
</g>
</svg>
